<?xml version="1.0" standalone="no"?>
<!DOCTYPE svg PUBLIC "-//W3C//DTD SVG 20010904//EN"
 "http://www.w3.org/TR/2001/REC-SVG-20010904/DTD/svg10.dtd">
<svg version="1.0" xmlns="http://www.w3.org/2000/svg"
 width="522.000000pt" height="522.000000pt" viewBox="0 0 522.000000 522.000000"
 preserveAspectRatio="xMidYMid meet">
<metadata>
Created by potrace 1.14, written by Peter Selinger 2001-2017
</metadata>
<g transform="translate(0.000000,522.000000) scale(0.100000,-0.100000)"
fill="#000000" stroke="none">
<path d="M2897 3996 c-10 -8 -29 -13 -42 -11 -14 1 -22 -2 -19 -6 6 -10 -43
-32 -69 -31 -9 0 -15 -3 -12 -9 4 -5 2 -9 -3 -9 -5 0 -27 -8 -48 -17 -22 -10
-44 -18 -50 -18 -6 0 -19 -7 -28 -14 -9 -8 -29 -14 -45 -15 -16 -1 -27 -4 -25
-8 3 -4 -10 -14 -28 -22 -123 -55 -151 -66 -160 -60 -7 4 -8 2 -4 -4 4 -7 -3
-14 -19 -18 -15 -4 -48 -17 -73 -29 -26 -12 -65 -28 -87 -36 -22 -8 -42 -16
-45 -19 -13 -14 -132 -60 -121 -46 9 11 9 16 0 22 -7 4 -10 3 -6 -2 8 -14 -14
-37 -56 -57 -26 -12 -36 -13 -32 -5 4 7 0 6 -7 -3 -8 -10 -25 -15 -43 -14 -17
2 -36 3 -43 4 -7 1 -11 5 -8 9 3 5 -5 8 -17 7 -12 -1 -33 3 -47 9 -28 13 -144
13 -174 1 -14 -6 -17 -5 -11 4 6 10 3 11 -11 4 -11 -6 -31 -9 -46 -8 -16 1
-28 -1 -28 -4 0 -8 -76 -5 -91 4 -8 6 -10 4 -4 -5 6 -9 4 -12 -7 -8 -8 4 -21
2 -29 -2 -8 -5 -19 -4 -26 2 -9 7 -13 7 -13 -1 0 -8 -6 -9 -17 -3 -10 5 -27 6
-38 2 -11 -4 -26 -3 -34 4 -11 8 -13 8 -7 -2 8 -14 -19 -12 -43 2 -10 7 -12 6
-6 -4 6 -10 4 -12 -7 -7 -9 3 -18 3 -21 0 -3 -3 -33 -6 -67 -8 -33 -1 -63 -5
-66 -8 -3 -3 -19 -1 -35 3 -16 5 -27 5 -25 1 3 -4 -13 -8 -34 -9 -26 -1 -40 3
-40 11 0 8 -3 8 -9 -2 -6 -10 -33 -15 -83 -17 -40 -2 -99 -5 -130 -7 -43 -4
-67 0 -93 13 -19 10 -32 13 -28 7 4 -7 0 -8 -13 -3 -19 7 -81 22 -139 33 -16
3 -34 9 -40 12 -18 13 -73 12 -81 0 -4 -7 -3 -10 3 -6 6 4 11 -4 11 -18 0 -14
-5 -22 -11 -18 -6 3 -7 1 -3 -5 13 -22 15 -52 3 -52 -8 0 -8 -3 -2 -8 15 -11
19 -46 4 -36 -8 5 -9 3 -3 -7 18 -29 24 -110 9 -121 -6 -5 -5 -8 4 -8 11 0 11
-3 0 -17 -10 -11 -10 -14 -1 -9 6 4 12 3 12 -3 0 -5 14 -12 30 -16 19 -4 28
-11 23 -18 -4 -8 -1 -7 9 1 10 8 18 9 22 3 4 -6 13 -8 20 -5 13 5 16 -43 18
-303 1 -77 2 -81 20 -72 10 5 24 7 30 3 7 -5 8 -3 3 6 -6 9 -4 12 7 8 8 -4 20
2 27 14 7 11 19 17 27 14 8 -3 14 -2 14 2 0 11 61 43 71 36 5 -3 9 0 9 5 0 6
7 11 15 11 8 0 15 5 15 10 0 6 3 9 8 8 4 -1 16 3 27 9 36 20 94 26 111 12 12
-10 15 -10 12 1 -2 9 6 14 22 14 16 0 24 -5 22 -15 -1 -10 2 -9 11 4 17 20 65
25 51 4 -5 -7 -2 -5 8 5 9 10 27 17 40 17 12 -1 43 2 68 6 25 3 66 8 92 9 25
2 50 6 55 8 4 3 27 4 51 4 23 -1 42 1 42 5 0 3 17 6 38 7 65 2 144 10 149 16
3 3 15 1 26 -5 14 -8 18 -8 13 0 -5 7 5 11 29 11 20 0 34 -4 30 -9 -3 -5 -1
-12 4 -16 7 -4 7 -15 1 -31 -6 -14 -6 -23 -1 -20 5 3 11 -1 15 -9 3 -10 -1
-15 -12 -15 -10 0 -13 -3 -7 -8 20 -14 35 -51 24 -57 -6 -5 -6 -12 3 -23 11
-13 11 -14 -2 -7 -12 7 -13 6 -3 -6 10 -12 10 -18 0 -29 -9 -10 -9 -11 1 -6
11 6 18 -18 13 -47 -1 -4 3 -26 8 -49 7 -30 6 -47 -2 -57 -9 -12 -9 -13 1 -7
19 11 14 -12 -7 -33 -11 -11 -27 -31 -37 -46 -9 -14 -23 -24 -30 -21 -8 3 -11
0 -7 -10 4 -11 9 -12 19 -3 7 6 18 8 24 4 6 -4 9 -1 8 5 -2 6 15 19 37 28 22
8 43 20 48 26 5 8 10 7 16 -2 4 -8 10 -13 12 -13 14 4 69 -26 69 -37 0 -7 3
-11 8 -8 4 2 26 -9 50 -25 23 -16 47 -29 52 -29 6 0 10 -4 10 -9 0 -5 9 -11
20 -14 14 -4 18 -11 14 -24 -4 -14 -4 -15 4 -4 11 16 36 5 26 -11 -4 -7 -2 -8
4 -4 13 8 72 -23 72 -38 0 -5 3 -7 6 -3 3 3 14 -2 25 -11 13 -11 15 -18 7 -23
-16 -10 -39 1 -31 15 5 8 3 8 -8 0 -18 -15 -118 -22 -123 -9 -3 7 -5 7 -5 0
-1 -6 -38 -9 -93 -9 -93 2 -156 -15 -143 -36 4 -6 2 -10 -2 -10 -5 0 -8 -12
-8 -27 1 -16 -3 -34 -8 -40 -5 -7 -6 -13 -1 -13 4 0 -1 -6 -11 -14 -11 -8 -24
-11 -30 -8 -5 4 -25 7 -43 8 -47 1 -84 -38 -88 -91 -3 -50 -8 -73 -17 -81 -4
-4 -2 -13 4 -20 8 -10 8 -15 -3 -19 -9 -4 -14 -18 -13 -41 1 -19 -1 -37 -6
-39 -4 -3 -5 -14 -2 -25 3 -12 0 -20 -7 -20 -10 0 -10 -3 -1 -14 9 -11 9 -16
0 -21 -8 -6 -7 -10 2 -16 12 -7 12 -9 0 -9 -9 0 -12 -8 -9 -25 3 -14 2 -25 -2
-25 -4 0 -6 -15 -5 -32 2 -24 7 -32 19 -30 9 2 16 -2 16 -7 0 -6 7 -7 17 -4
12 5 14 3 8 -7 -6 -10 -4 -11 6 -4 19 12 33 12 41 -1 5 -6 8 -6 8 3 0 6 9 12
20 12 11 0 20 -5 20 -11 0 -5 -3 -8 -7 -6 -5 3 -7 -11 -7 -31 2 -43 -27 -67
-58 -51 -13 7 -18 6 -18 -3 0 -8 -3 -9 -8 -3 -9 13 -42 16 -42 3 0 -5 -4 -7
-9 -3 -10 6 -37 -34 -33 -47 1 -5 -2 -8 -7 -8 -6 0 -10 -8 -10 -17 0 -21 -7
-75 -15 -118 -4 -16 -7 -42 -8 -57 0 -15 -5 -25 -11 -21 -5 3 -4 -4 2 -15 14
-27 14 -35 -1 -26 -8 5 -9 2 -5 -9 3 -9 2 -19 -3 -22 -7 -4 -7 -13 0 -24 5
-10 6 -21 3 -25 -3 -3 3 -6 15 -6 12 0 22 -5 22 -11 0 -8 6 -7 17 2 14 12 15
12 9 1 -7 -11 -4 -12 12 -3 15 8 22 8 25 -2 3 -9 7 -9 17 0 18 17 41 -8 34
-38 -17 -79 -12 -132 12 -122 8 3 14 0 14 -6 0 -8 100 -11 365 -11 239 1 365
4 365 11 0 6 4 8 9 5 12 -8 24 21 26 67 1 20 4 40 7 43 3 2 4 19 2 37 -1 18 0
26 3 20 3 -9 10 -10 23 -3 13 7 20 6 24 -3 5 -9 7 -9 12 0 4 9 11 10 23 3 10
-5 21 -6 25 -3 4 4 16 8 28 10 23 4 40 22 32 34 -2 4 3 10 12 13 9 4 12 11 7
18 -12 20 -12 38 -1 38 7 0 7 5 1 12 -8 12 -10 30 -3 43 1 3 3 13 4 23 1 9 5
22 9 29 4 6 1 14 -5 16 -10 4 -10 6 0 6 10 1 10 6 1 22 -6 12 -7 19 -2 16 6
-4 9 23 9 68 -1 41 2 75 6 75 4 0 8 5 8 11 0 5 -4 8 -9 5 -5 -4 -7 3 -4 14 3
11 14 25 25 31 15 8 19 8 13 -1 -5 -8 0 -7 14 2 16 10 23 10 33 0 9 -9 8 -12
-7 -12 -12 0 -16 -3 -9 -8 17 -12 23 -39 11 -51 -8 -8 -8 -11 2 -11 11 0 11
-3 1 -15 -10 -12 -10 -15 0 -15 8 0 9 -4 3 -12 -5 -7 -9 -33 -8 -58 1 -25 -3
-51 -8 -57 -6 -8 -6 -13 0 -13 5 0 9 -9 9 -20 0 -11 -3 -20 -7 -20 -9 0 -6
-20 4 -37 4 -6 3 -14 -2 -17 -5 -4 -7 -20 -4 -37 3 -23 1 -29 -8 -24 -7 5 -10
4 -7 -1 12 -19 18 -84 7 -84 -5 0 -7 -5 -3 -12 9 -14 9 -93 0 -107 -4 -5 2
-14 11 -20 10 -6 14 -11 8 -11 -5 0 -3 -5 5 -10 21 -14 390 -13 390 1 0 5 3 8
8 6 7 -5 33 17 32 28 0 3 0 6 1 8 0 1 1 50 2 109 2 70 -1 104 -8 100 -6 -3 -5
0 1 9 7 8 11 58 10 127 -1 61 2 112 7 112 4 0 5 5 1 12 -13 20 -10 68 4 68 7
0 10 5 7 10 -4 6 -10 8 -15 5 -4 -3 -6 4 -3 15 5 17 8 18 36 7 23 -10 31 -20
32 -39 3 -44 11 -54 51 -56 21 -2 40 -5 43 -7 2 -3 11 1 19 8 13 9 14 9 8 0
-4 -8 -2 -13 6 -13 8 0 20 6 27 13 10 10 11 8 5 -8 -7 -18 -6 -18 9 -6 14 11
17 11 17 0 0 -11 2 -11 10 1 9 13 11 13 19 0 5 -8 7 -18 4 -24 -3 -5 -1 -6 5
-2 6 4 8 14 5 22 -10 26 34 -1 54 -34 10 -15 20 -29 23 -32 16 -13 73 -105 73
-116 0 -7 5 -12 11 -11 6 1 10 -6 10 -15 -1 -10 3 -16 8 -15 5 1 15 -7 21 -18
7 -11 14 -22 17 -25 3 -3 16 -20 29 -38 18 -26 26 -30 37 -21 11 9 16 6 23
-12 5 -16 5 -26 -3 -31 -6 -5 -7 -8 -1 -8 6 0 10 -19 9 -42 -1 -43 21 -92 36
-83 5 3 11 1 15 -5 10 -16 357 -13 389 3 14 8 23 17 19 20 -3 4 -2 7 4 7 11 0
10 41 -2 59 -3 6 -1 11 5 11 7 0 8 5 3 13 -4 6 -8 36 -9 65 -1 29 -8 60 -15
69 -9 11 -10 14 -2 9 9 -5 12 4 10 34 -1 22 -6 40 -10 40 -4 0 -3 9 3 19 7 13
7 22 0 26 -5 3 -8 24 -7 45 2 21 0 37 -4 34 -5 -2 -6 16 -2 41 4 34 2 45 -8
45 -11 0 -11 3 1 10 10 7 11 10 2 10 -8 0 -11 12 -8 37 3 23 0 40 -7 45 -9 6
-9 8 0 8 8 0 9 9 3 30 -5 17 -6 30 -2 30 4 0 0 5 -8 10 -8 5 -10 10 -3 10 12
0 12 17 0 37 -4 6 -1 14 5 16 9 4 10 8 2 14 -6 4 -11 23 -12 41 -1 17 -2 48
-3 67 0 19 -5 38 -10 41 -5 3 -5 13 1 23 5 10 7 21 4 24 -3 3 -8 20 -10 37 -4
25 -3 30 8 24 10 -6 11 -5 1 7 -7 9 -13 39 -14 67 -1 29 -5 52 -9 52 -11 0 -7
34 5 42 6 5 6 8 -1 8 -6 0 -11 10 -11 23 -1 61 -4 78 -13 72 -5 -3 -10 -2 -10
2 0 5 -9 14 -21 21 -17 11 -20 11 -13 0 6 -10 5 -11 -7 -1 -12 10 -18 10 -29
0 -9 -8 -11 -9 -6 0 7 13 -31 12 -53 -2 -10 -6 -12 -4 -6 4 5 9 -1 11 -23 8
-29 -5 -30 -3 -22 18 5 13 6 26 3 29 -4 3 -2 6 3 6 8 0 10 14 17 103 1 15 6
27 11 27 4 0 6 9 3 20 -3 11 -2 20 2 20 3 0 24 15 46 34 22 19 44 32 49 29 5
-3 6 -1 2 5 -4 7 -3 12 3 12 5 0 -13 43 -40 95 -28 52 -47 100 -44 105 3 5 -1
7 -9 4 -11 -4 -14 1 -12 21 2 14 1 23 -2 21 -11 -12 -43 47 -45 81 -2 32 1 38
18 38 11 0 23 4 27 9 3 5 23 10 45 12 21 2 39 4 41 5 8 6 124 24 135 21 4 -1
7 1 7 6 0 4 12 7 28 8 48 1 126 16 159 29 29 12 34 12 42 -3 5 -9 12 -16 15
-14 14 6 25 0 51 -25 16 -16 24 -21 20 -13 -7 11 -1 9 20 -5 17 -10 47 -27 68
-37 20 -10 37 -22 37 -26 0 -16 48 -10 108 14 54 21 66 23 80 12 15 -11 15
-11 5 3 -11 14 -4 19 60 44 39 15 93 38 120 51 26 12 44 17 40 11 -3 -7 3 -4
14 6 11 9 23 17 27 17 14 0 31 25 30 45 0 11 3 28 8 37 4 9 10 32 12 50 3 18
5 33 6 33 1 0 4 9 6 20 9 37 10 40 15 50 4 6 4 19 2 30 -2 11 -5 25 -5 30 -1
6 -11 11 -22 11 -26 0 -114 39 -140 62 -14 12 -17 13 -11 2 5 -8 -11 -3 -37
13 -26 15 -54 27 -62 27 -9 0 -16 5 -16 10 0 6 -7 10 -15 10 -8 0 -15 5 -15
11 0 5 -4 8 -9 4 -13 -7 -92 35 -86 45 3 5 0 12 -6 16 -8 4 -9 3 -5 -4 11 -18
-9 -15 -59 9 -25 12 -42 25 -39 30 3 5 -2 6 -10 3 -8 -3 -25 0 -38 7 -13 7
-26 12 -30 11 -5 -1 -8 3 -8 10 0 6 -3 8 -7 5 -3 -4 -13 -1 -22 7 -9 8 -19 15
-23 16 -29 3 -98 34 -98 43 0 5 -5 5 -10 2 -6 -3 -13 1 -16 9 -3 9 -10 14 -14
11 -11 -7 -82 24 -76 33 2 4 -3 8 -12 9 -9 1 -28 3 -42 5 -14 2 -49 -5 -79
-14 -29 -10 -57 -15 -62 -12 -5 3 -9 0 -9 -7 0 -8 -5 -7 -17 2 -9 8 -14 9 -10
3 8 -13 -32 -32 -78 -37 -16 -2 -41 -9 -54 -16 -12 -7 -32 -11 -42 -8 -10 3
-17 1 -13 -4 3 -5 -2 -10 -10 -10 -24 -2 -30 -4 -43 -12 -6 -4 -14 -3 -18 3
-3 5 -12 10 -18 10 -8 0 -7 -4 2 -9 17 -11 23 -38 11 -46 -5 -3 -11 -1 -15 5
-4 6 -11 8 -16 5 -5 -4 -9 -1 -9 5 0 6 -5 8 -10 5 -6 -4 -17 -1 -25 5 -8 7
-15 9 -15 4 0 -4 -7 1 -16 12 -8 10 -13 13 -9 7 8 -16 5 -16 -41 3 -21 9 -45
18 -53 20 -53 13 -121 41 -114 47 4 5 -1 5 -11 1 -13 -5 -23 -1 -32 11 -8 10
-14 14 -14 8 0 -6 -9 -9 -20 -6 -11 3 -20 8 -20 12 0 4 -10 7 -22 8 -12 1 -33
6 -47 12 -14 5 -35 12 -46 17 -11 4 -29 9 -39 11 -11 2 -24 8 -30 13 -7 5 -24
10 -38 12 -15 2 -30 7 -34 11 -10 10 -16 8 -37 -7z m653 -1132 c0 -6 7 -17 15
-24 36 -30 -20 -14 -72 20 l-22 14 26 18 c25 16 27 16 40 0 7 -9 13 -22 13
-28z m-584 -375 c18 2 44 -11 44 -21 0 -5 -6 -8 -14 -5 -9 4 -12 0 -9 -12 6
-25 -50 -50 -63 -29 -4 6 -10 5 -15 -3 -7 -11 -9 -11 -9 -1 0 8 -5 10 -12 5
-7 -4 -24 -8 -37 -9 -25 -1 -25 -1 5 23 20 16 37 22 54 18 19 -4 21 -3 10 4
-12 9 -12 13 5 29 11 11 23 15 26 10 3 -5 10 -9 15 -9z m-1073 -431 c8 7 18 7
27 2 9 -6 17 -5 22 3 6 9 8 9 8 -1 0 -9 5 -10 19 -2 14 7 22 7 26 0 5 -8 11
-7 21 1 11 9 14 9 14 -1 0 -10 3 -10 14 -1 11 10 17 7 30 -10 11 -16 12 -26 5
-35 -5 -6 -8 -18 -7 -25 2 -9 -6 -14 -19 -13 -13 0 -23 -2 -23 -5 0 -3 -18 -6
-40 -6 -22 0 -40 5 -40 10 0 7 -3 7 -8 0 -4 -5 -20 -10 -37 -10 -16 0 -33 5
-37 10 -5 6 -8 5 -8 -3 0 -10 -3 -10 -13 0 -19 17 0 103 20 87 9 -8 17 -8 26
-1z m-79 -473 c-5 -13 -2 -14 22 -5 20 8 30 8 32 1 2 -6 9 -8 15 -4 19 12 61
11 69 0 4 -7 12 -6 22 2 9 8 16 10 16 6 0 -4 8 -1 17 6 10 8 14 9 10 2 -4 -6
-4 -14 1 -17 4 -2 7 -24 7 -48 -1 -41 -2 -43 -30 -41 -16 1 -34 -2 -40 -7 -9
-7 -16 -5 -25 5 -7 8 -17 12 -23 8 -6 -3 -38 -7 -72 -8 l-62 -1 4 34 c6 52 7
56 23 69 20 16 20 16 14 -2z m1776 -239 c0 -3 -4 -8 -10 -11 -5 -3 -10 -1 -10
4 0 6 5 11 10 11 6 0 10 -2 10 -4z m-3 -54 c1 -19 -3 -29 -13 -29 -15 0 -18
15 -8 41 9 25 19 19 21 -12z"/>
<path d="M3516 2858 c3 -5 10 -6 15 -3 13 9 11 12 -6 12 -8 0 -12 -4 -9 -9z"/>
<path d="M3130 3959 c0 -5 5 -7 10 -4 6 3 10 8 10 11 0 2 -4 4 -10 4 -5 0 -10
-5 -10 -11z"/>
<path d="M4010 3959 c0 -5 5 -7 10 -4 6 3 10 8 10 11 0 2 -4 4 -10 4 -5 0 -10
-5 -10 -11z"/>
<path d="M3366 3882 c-3 -5 1 -9 9 -9 8 0 12 4 9 9 -3 4 -7 8 -9 8 -2 0 -6 -4
-9 -8z"/>
<path d="M2515 3860 c3 -5 8 -10 11 -10 2 0 4 5 4 10 0 6 -5 10 -11 10 -5 0
-7 -4 -4 -10z"/>
<path d="M4350 3819 c0 -5 5 -7 10 -4 6 3 10 8 10 11 0 2 -4 4 -10 4 -5 0 -10
-5 -10 -11z"/>
<path d="M4415 3800 c3 -5 8 -10 11 -10 2 0 4 5 4 10 0 6 -5 10 -11 10 -5 0
-7 -4 -4 -10z"/>
<path d="M2095 3680 c3 -5 8 -10 11 -10 2 0 4 5 4 10 0 6 -5 10 -11 10 -5 0
-7 -4 -4 -10z"/>
<path d="M396 3622 c-3 -5 1 -9 9 -9 8 0 12 4 9 9 -3 4 -7 8 -9 8 -2 0 -6 -4
-9 -8z"/>
<path d="M1316 3613 c-6 -14 -5 -15 5 -6 7 7 10 15 7 18 -3 3 -9 -2 -12 -12z"/>
<path d="M4786 3618 c3 -5 10 -6 15 -3 13 9 11 12 -6 12 -8 0 -12 -4 -9 -9z"/>
<path d="M475 3601 c-3 -5 -2 -12 3 -15 5 -3 9 1 9 9 0 17 -3 19 -12 6z"/>
<path d="M4835 3600 c3 -5 8 -10 11 -10 2 0 4 5 4 10 0 6 -5 10 -11 10 -5 0
-7 -4 -4 -10z"/>
<path d="M916 3573 c-6 -14 -5 -15 5 -6 7 7 10 15 7 18 -3 3 -9 -2 -12 -12z"/>
<path d="M570 3560 c0 -5 5 -10 11 -10 5 0 7 5 4 10 -3 6 -8 10 -11 10 -2 0
-4 -4 -4 -10z"/>
<path d="M4975 3360 c-3 -5 -1 -10 4 -10 6 0 11 5 11 10 0 6 -2 10 -4 10 -3 0
-8 -4 -11 -10z"/>
<path d="M4966 3322 c-3 -5 1 -9 9 -9 8 0 12 4 9 9 -3 4 -7 8 -9 8 -2 0 -6 -4
-9 -8z"/>
<path d="M370 3199 c0 -5 5 -7 10 -4 6 3 10 8 10 11 0 2 -4 4 -10 4 -5 0 -10
-5 -10 -11z"/>
<path d="M4935 3200 c3 -5 8 -10 11 -10 2 0 4 5 4 10 0 6 -5 10 -11 10 -5 0
-7 -4 -4 -10z"/>
<path d="M4670 3099 c0 -5 5 -7 10 -4 6 3 10 8 10 11 0 2 -4 4 -10 4 -5 0 -10
-5 -10 -11z"/>
<path d="M374 3056 c1 -8 5 -18 8 -22 4 -3 5 1 4 10 -1 8 -5 18 -8 22 -4 3 -5
-1 -4 -10z"/>
<path d="M1440 3060 c-9 -6 -10 -10 -3 -10 6 0 15 5 18 10 8 12 4 12 -15 0z"/>
<path d="M4395 3060 c3 -5 8 -10 11 -10 2 0 4 5 4 10 0 6 -5 10 -11 10 -5 0
-7 -4 -4 -10z"/>
<path d="M1095 3040 c-3 -5 -1 -10 4 -10 6 0 11 5 11 10 0 6 -2 10 -4 10 -3 0
-8 -4 -11 -10z"/>
<path d="M1130 3039 c0 -5 5 -7 10 -4 6 3 10 8 10 11 0 2 -4 4 -10 4 -5 0 -10
-5 -10 -11z"/>
<path d="M1166 3042 c-3 -5 1 -9 9 -9 8 0 12 4 9 9 -3 4 -7 8 -9 8 -2 0 -6 -4
-9 -8z"/>
<path d="M4535 3040 c-3 -5 -1 -10 4 -10 6 0 11 5 11 10 0 6 -2 10 -4 10 -3 0
-8 -4 -11 -10z"/>
<path d="M735 3000 c3 -5 8 -10 11 -10 2 0 4 5 4 10 0 6 -5 10 -11 10 -5 0 -7
-4 -4 -10z"/>
<path d="M775 3000 c-3 -5 -1 -10 4 -10 6 0 11 5 11 10 0 6 -2 10 -4 10 -3 0
-8 -4 -11 -10z"/>
<path d="M3850 2861 c0 -6 4 -13 10 -16 6 -3 7 1 4 9 -7 18 -14 21 -14 7z"/>
<path d="M415 2840 c-3 -5 -1 -10 4 -10 6 0 11 5 11 10 0 6 -2 10 -4 10 -3 0
-8 -4 -11 -10z"/>
<path d="M3815 2640 c3 -5 8 -10 11 -10 2 0 4 5 4 10 0 6 -5 10 -11 10 -5 0
-7 -4 -4 -10z"/>
<path d="M4050 2419 c0 -4 -8 -10 -18 -13 -19 -6 -28 -46 -10 -46 7 0 6 -5 -1
-14 -9 -10 -9 -16 -1 -21 8 -5 8 -11 -1 -21 -9 -11 -9 -14 0 -14 7 0 11 -10
10 -22 -2 -13 1 -29 5 -37 6 -10 5 -12 -2 -7 -7 4 -12 3 -12 -3 0 -5 4 -12 8
-15 10 -6 9 -36 -2 -54 -4 -7 -1 -15 9 -18 13 -6 14 -8 3 -15 -7 -5 -8 -9 -3
-9 6 0 11 -17 10 -37 0 -21 4 -44 9 -50 5 -9 4 -13 -4 -13 -9 0 -9 -4 -3 -12
6 -7 9 -30 8 -50 -1 -21 1 -38 4 -38 4 0 6 -17 5 -37 0 -21 3 -44 9 -50 6 -9
6 -13 -2 -13 -7 0 -8 -8 -3 -22 5 -13 7 -33 6 -45 0 -13 3 -23 9 -23 5 0 4 -7
-3 -15 -7 -8 -8 -15 -3 -15 5 0 9 -9 10 -20 1 -11 -4 -20 -10 -20 -8 0 -9 -3
-1 -8 15 -10 25 -52 12 -52 -7 0 -7 -4 -1 -12 6 -7 9 -30 8 -50 -1 -21 0 -38
4 -38 3 0 7 -13 7 -30 1 -19 -2 -28 -10 -24 -6 3 -3 -1 7 -9 14 -11 15 -16 5
-21 -9 -4 -10 -8 -2 -11 6 -3 10 -19 8 -35 -2 -16 1 -32 6 -35 7 -4 6 -13 0
-26 -7 -11 -7 -19 -1 -19 5 0 8 -8 6 -17 -1 -10 3 -24 9 -32 9 -12 8 -13 -3
-6 -11 6 -13 4 -6 -11 4 -10 8 -38 9 -61 0 -24 4 -43 8 -43 4 0 8 -7 8 -15 0
-8 9 -19 19 -25 23 -12 374 -14 385 -2 4 4 13 7 19 7 7 0 12 10 11 22 0 12 3
20 8 17 5 -3 6 7 2 23 -3 15 -8 46 -10 68 -5 59 -12 104 -19 114 -3 5 1 12 7
14 10 4 10 6 1 6 -7 1 -10 8 -6 18 4 11 3 14 -5 9 -9 -5 -9 -1 -3 17 6 16 6
28 -2 36 -6 6 -8 11 -4 11 3 0 2 11 -3 25 -7 18 -6 25 3 25 9 0 9 2 -1 8 -7 5
-10 16 -6 25 4 10 1 17 -6 17 -9 0 -9 4 1 17 10 11 10 14 2 9 -9 -5 -13 0 -13
14 0 12 5 18 10 15 6 -3 10 -3 10 2 0 4 36 6 80 3 44 -3 80 -3 80 0 0 3 27 3
60 0 33 -3 60 -3 60 0 0 10 55 6 62 -5 5 -6 8 -5 8 4 0 11 3 11 15 1 8 -7 15
-8 15 -3 0 11 42 9 59 -2 6 -3 11 -2 11 4 0 5 10 11 23 13 23 3 30 24 14 46
-6 8 -5 12 4 12 10 0 11 3 3 8 -7 4 -14 25 -15 47 l-4 40 60 2 c77 3 85 5 85
15 0 17 2 23 13 36 8 10 8 15 0 20 -6 4 -12 21 -14 37 -2 17 -8 36 -14 44 -8
12 -7 13 5 6 12 -7 13 -6 4 6 -5 8 -11 30 -13 49 -2 19 -6 37 -10 40 -3 3 -6
16 -6 30 0 14 -6 38 -13 54 -11 23 -11 27 0 20 10 -6 11 -5 1 8 -7 8 -10 18
-6 21 3 4 2 7 -4 7 -5 0 -9 10 -8 23 1 12 -2 28 -8 35 -5 6 -6 12 -3 12 4 0
-1 13 -10 29 -10 17 -21 28 -26 25 -4 -3 -8 0 -8 6 0 6 -5 8 -10 5 -6 -4 -18
-1 -27 7 -11 8 -14 9 -10 1 6 -9 -3 -11 -35 -9 -24 2 -45 4 -48 5 -3 1 -7 18
-8 39 -2 20 -7 39 -12 40 -6 2 -7 8 -4 14 3 5 -3 18 -15 29 -20 18 -37 19
-426 17 -223 -1 -405 -5 -405 -9z m500 -350 c0 5 18 5 40 1 22 -4 40 -4 40 -1
0 4 18 5 40 3 38 -4 40 -6 40 -37 0 -18 6 -36 13 -38 7 -3 5 -6 -5 -6 -10 -1
-18 -5 -18 -11 0 -6 -9 -6 -24 0 -15 5 -27 5 -35 -3 -7 -7 -11 -7 -11 -1 0 6
-10 10 -22 8 -13 -1 -23 -3 -23 -4 0 -1 -10 -3 -22 -4 -13 -2 -23 2 -23 7 0 5
-7 4 -15 -3 -12 -10 -15 -10 -16 1 0 10 -2 11 -6 2 -3 -10 -8 -9 -20 3 -8 8
-13 17 -10 20 3 3 1 19 -3 36 -8 24 -6 29 5 24 8 -3 15 -1 15 4 0 5 13 5 30 0
17 -5 30 -5 30 -1z"/>
<path d="M438 2388 c-17 -13 -38 -57 -44 -93 -7 -42 -19 -77 -35 -107 -6 -12
-6 -18 1 -18 7 0 6 -8 -2 -22 -7 -13 -14 -30 -15 -38 -1 -8 -7 -33 -13 -55 -7
-22 -14 -52 -17 -67 -3 -16 -8 -28 -12 -28 -3 0 -7 -14 -8 -32 -1 -17 -6 -34
-10 -37 -5 -3 -10 -19 -12 -36 -1 -16 -7 -34 -11 -40 -5 -5 -9 -13 -9 -17 -1
-5 -1 -9 -2 -10 -2 -7 -9 -46 -11 -68 -2 -14 -6 -28 -11 -31 -8 -6 -17 -38
-21 -82 -2 -16 -8 -33 -14 -39 -6 -6 -8 -17 -5 -26 4 -8 2 -13 -3 -10 -5 4
-10 -4 -10 -15 -2 -29 -8 -49 -17 -64 -5 -7 -5 -17 -2 -23 3 -5 1 -10 -5 -10
-6 0 -9 -4 -6 -8 3 -5 -1 -27 -9 -49 -8 -23 -17 -54 -20 -70 -10 -46 -10 -47
-18 -60 -5 -7 -5 -13 -1 -13 3 0 1 -7 -6 -15 -6 -8 -9 -19 -5 -25 3 -5 2 -10
-2 -10 -5 0 -9 -8 -10 -17 -1 -10 -3 -27 -6 -38 -2 -11 0 -28 5 -38 8 -16 45
-17 553 -17 331 0 545 4 545 9 0 5 9 13 21 16 12 4 18 12 15 21 -3 8 -1 14 4
14 5 0 7 7 4 15 -3 8 -2 20 2 27 4 7 9 28 11 47 2 19 7 40 11 46 4 5 7 29 7
52 0 24 3 43 7 43 5 0 7 3 7 8 -1 4 -1 9 0 12 8 21 8 99 0 95 -5 -4 -9 -1 -9
5 0 6 -4 8 -10 5 -5 -3 -10 -3 -10 2 0 4 -23 9 -50 10 -34 1 -48 -2 -44 -9 5
-7 2 -8 -6 -3 -19 12 -101 15 -94 4 8 -14 -3 -11 -20 7 -9 8 -16 11 -16 6 0
-4 -20 -9 -45 -9 -31 -1 -43 3 -38 11 3 6 -3 3 -14 -7 -12 -11 -24 -14 -27 -9
-3 6 -16 8 -28 4 -16 -4 -19 -2 -14 9 4 8 0 5 -8 -5 -10 -13 -16 -15 -16 -7 0
10 -3 11 -14 2 -11 -9 -16 -9 -22 0 -5 8 -3 9 6 4 9 -5 11 -4 6 4 -5 8 -12 9
-19 2 -13 -10 -77 -8 -95 3 -8 5 -10 2 -6 -9 5 -13 2 -14 -21 -5 -34 13 -38
13 -29 -2 5 -9 3 -9 -9 1 -9 7 -14 18 -10 25 4 6 6 19 5 29 -2 11 3 17 15 17
15 0 15 2 4 9 -10 7 -12 13 -5 23 9 11 12 25 16 76 1 6 5 12 10 12 5 0 8 6 7
13 -4 24 14 97 24 97 5 0 4 7 -3 15 -10 12 -10 15 0 15 7 0 10 7 6 15 -3 8 -1
15 3 15 5 0 8 8 6 18 -1 9 0 22 4 27 7 12 12 34 14 58 1 9 4 17 8 17 3 0 5 13
4 30 -1 16 1 27 5 25 4 -3 8 7 8 21 0 15 6 30 13 35 9 6 10 9 2 9 -9 0 -8 9 3
35 8 19 11 35 8 35 -4 0 0 8 7 17 10 11 10 14 2 9 -18 -10 -16 -1 3 18 8 9 10
16 4 16 -7 0 -8 6 -1 19 6 10 7 21 4 25 -3 3 0 6 8 6 11 0 11 2 -1 10 -12 7
-12 10 -1 10 7 0 11 6 7 15 -3 8 -1 15 3 15 5 0 8 8 6 18 -1 9 1 22 6 27 4 6
4 17 -1 25 -13 21 -336 28 -362 8z"/>
<path d="M2490 1680 c0 -5 5 -10 11 -10 5 0 7 5 4 10 -3 6 -8 10 -11 10 -2 0
-4 -4 -4 -10z"/>
<path d="M3370 1440 c0 -5 5 -10 11 -10 5 0 7 5 4 10 -3 6 -8 10 -11 10 -2 0
-4 -4 -4 -10z"/>
<path d="M3390 1379 c0 -5 5 -7 10 -4 6 3 10 8 10 11 0 2 -4 4 -10 4 -5 0 -10
-5 -10 -11z"/>
<path d="M3450 1320 c0 -5 5 -10 11 -10 5 0 7 5 4 10 -3 6 -8 10 -11 10 -2 0
-4 -4 -4 -10z"/>
</g>
</svg>
